<svg xmlns="http://www.w3.org/2000/svg" xmlns:xlink="http://www.w3.org/1999/xlink" >
    <symbol id="youtube">
        <path d="M18.59 2.02C18.49 1.63 18.27 1.27 17.98 0.99C17.69 0.7 17.32 0.49 16.92 0.39C15.44 0 9.5 0 9.5 0C9.5 0 3.55 0 2.07 0.39C1.67 0.49 1.3 0.7 1.01 0.99C0.72 1.27 0.5 1.63 0.4 2.02C0.12 3.5 -0.01 5 0 6.5C-0.01 7.99 0.12 9.49 0.4 10.97C0.5 11.36 0.72 11.72 1.01 12C1.3 12.29 1.67 12.5 2.07 12.6C3.55 13 9.5 13 9.5 13C9.5 13 15.44 13 16.92 12.6C17.32 12.5 17.69 12.29 17.98 12C18.27 11.72 18.49 11.36 18.59 10.97C18.87 9.49 19 7.99 18.99 6.5C19 5 18.87 3.5 18.59 2.02ZM7.6 9.28L7.6 3.71L12.53 6.5L7.6 9.28Z" />
    </symbol>

    <symbol id="instagram">
        <path d="M4.41 0C1.98 0 0 2.11 0 4.7L0 11.29C0 13.87 1.98 16 4.41 16L10.58 16C13.01 16 15 13.88 15 11.29L15 4.7C15 2.12 13.01 0 10.58 0L4.41 0ZM4.41 1.45L10.58 1.45C10.98 1.45 11.38 1.53 11.75 1.7C12.12 1.86 12.46 2.1 12.74 2.4C13.02 2.7 13.25 3.06 13.4 3.46C13.55 3.85 13.63 4.27 13.63 4.7L13.63 11.29C13.63 11.72 13.55 12.14 13.4 12.53C13.25 12.93 13.02 13.29 12.74 13.59C12.46 13.89 12.12 14.13 11.75 14.29C11.38 14.46 10.98 14.54 10.58 14.54L4.41 14.54C4.01 14.54 3.61 14.46 3.24 14.29C2.87 14.13 2.53 13.89 2.25 13.59C1.97 13.29 1.74 12.93 1.59 12.53C1.44 12.14 1.36 11.72 1.36 11.29L1.36 4.7C1.36 4.27 1.44 3.85 1.59 3.46C1.74 3.06 1.97 2.7 2.25 2.4C2.53 2.1 2.87 1.86 3.24 1.7C3.61 1.53 4.01 1.45 4.41 1.45ZM11.52 3.04C11.44 3.04 11.36 3.06 11.29 3.09C11.21 3.12 11.14 3.17 11.08 3.23C11.03 3.29 10.98 3.37 10.95 3.45C10.92 3.53 10.9 3.61 10.9 3.7C10.9 4.07 11.18 4.36 11.52 4.36C11.6 4.36 11.68 4.34 11.76 4.31C11.83 4.28 11.9 4.23 11.96 4.17C12.02 4.11 12.06 4.03 12.09 3.95C12.12 3.87 12.14 3.79 12.14 3.7C12.14 3.61 12.12 3.53 12.09 3.45C12.06 3.37 12.02 3.29 11.96 3.23C11.9 3.17 11.83 3.12 11.76 3.09C11.68 3.06 11.6 3.04 11.52 3.04ZM7.5 3.63C5.25 3.63 3.4 5.6 3.4 8C3.4 10.39 5.25 12.36 7.5 12.36C9.75 12.36 11.59 10.39 11.59 8C11.59 5.6 9.75 3.63 7.5 3.63ZM7.5 5.09C9.01 5.09 10.22 6.38 10.22 8C10.22 9.61 9.01 10.9 7.5 10.9C5.98 10.9 4.77 9.61 4.77 8C4.77 6.38 5.98 5.09 7.5 5.09Z"/>
    </symbol>

    <symbol id="facebook">
        <path d="M7.5 0C4.87 0 3.33 1.33 3.33 4.38L3.33 7.07L0 7.07L0 10.28L3.33 10.28L3.33 18L6.66 18L6.66 10.28L9.33 10.28L10 7.07L6.66 7.07L6.66 4.93C6.66 3.78 7.05 3.21 8.17 3.21L10 3.21L10 0.13C9.68 0.09 8.76 0 7.5 0Z" />
    </symbol>

    <symbol id="twitter">
       <path d="M16 1.54C15.4 1.8 14.76 1.98 14.11 2.05C14.79 1.64 15.31 1 15.55 0.24C14.91 0.62 14.2 0.89 13.47 1.03C13.02 0.55 12.43 0.22 11.79 0.07C11.15 -0.07 10.48 -0.02 9.87 0.22C9.25 0.47 8.73 0.89 8.36 1.43C7.99 1.98 7.79 2.62 7.79 3.28C7.79 3.54 7.82 3.79 7.88 4.03C6.57 3.96 5.29 3.62 4.13 3.03C2.96 2.44 1.93 1.61 1.11 0.6C0.82 1.1 0.66 1.67 0.66 2.25C0.66 3.38 1.24 4.39 2.12 4.98C1.6 4.96 1.09 4.82 0.64 4.57L0.64 4.61C0.64 5.37 0.9 6.1 1.38 6.69C1.86 7.27 2.53 7.68 3.27 7.83C2.79 7.96 2.28 7.98 1.79 7.88C2 8.53 2.41 9.1 2.96 9.51C3.51 9.92 4.17 10.15 4.85 10.16C4.17 10.7 3.39 11.09 2.56 11.32C1.73 11.56 0.85 11.62 0 11.52C1.5 12.48 3.24 13 5.03 13C11.07 13 14.37 7.99 14.37 3.66C14.37 3.52 14.36 3.37 14.36 3.23C15 2.77 15.55 2.2 16 1.54L16 1.54Z"/>
    </symbol>

    <symbol id="in">
       <path d="M1.88 0C1.64 -0.01 1.39 0.04 1.16 0.14C0.93 0.24 0.72 0.38 0.55 0.56C0.37 0.73 0.23 0.95 0.14 1.18C0.04 1.41 9.15e-5 1.66 0 1.91C0 2.98 0.84 3.86 1.88 3.86C2.92 3.86 3.77 2.98 3.77 1.92C3.77 1.66 3.72 1.41 3.63 1.18C3.53 0.95 3.39 0.74 3.22 0.56C3.04 0.38 2.83 0.24 2.6 0.14C2.38 0.04 2.13 0 1.88 0ZM11.09 5.09C9.51 5.09 8.6 5.93 8.16 6.77L8.12 6.77L8.12 5.31L5 5.31L5 16L8.25 16L8.25 10.71C8.25 9.31 8.35 7.97 10.05 7.97C11.72 7.97 11.74 9.56 11.74 10.8L11.74 16L15 16L15 10.13C15 7.26 14.39 5.09 11.09 5.09ZM0.25 5.31L0.25 16L3.51 16L3.51 5.31L0.25 5.31Z"/>
    </symbol>
</svg>