<svg width="103.000000" height="54.000000" viewBox="0 0 103 54" fill="none" xmlns="http://www.w3.org/2000/svg" xmlns:xlink="http://www.w3.org/1999/xlink">
	<rect id="Rectangle" x="4.000000" y="51.000000" width="95.000000" height="3.000000" fill="#151412" fill-opacity="1.000000"/>
	<path id="vaso" d="M22.54 43L23.09 43L27.46 32.88L40.89 32.88L44.48 43L48.39 43L36.8 10.56L36.29 10.8L22.54 43ZM76.14 14.96Q72.08 19.31 72.08 27.68Q72.08 31.87 73.16 34.98Q74.24 38.08 76.17 39.82Q76.97 40.54 77.88 41.11Q81.16 43.17 85.74 43.17Q90.66 43.17 94.14 40.93Q95.44 40.1 96.54 38.95Q100.59 34.72 100.59 26.44Q100.59 18.15 96.8 14.38Q96 13.59 95.09 12.96Q91.66 10.61 86.61 10.61Q82.73 10.61 79.7 12.21Q77.75 13.25 76.14 14.96ZM60.22 11.11Q63.93 11.11 68.12 12.73L68.31 12.27Q63.62 10.71 59.08 10.71Q54.55 10.71 52.3 12.8Q51.47 13.56 50.95 14.49Q50.04 16.11 50.04 18.24Q50.04 20.41 50.95 22.06Q51.83 23.65 53.54 24.78Q55.1 25.83 56.99 26.69Q58.88 27.54 60.74 28.33Q62.61 29.1 64.17 30.02Q66.25 31.26 67.09 33.07Q67.66 34.29 67.66 35.77Q67.66 37.67 66.81 39.05Q66.16 40.11 65.01 40.86Q64.96 40.89 64.91 40.92Q62.3 42.58 58.64 42.58Q57.4 42.58 56.19 42.4Q54.93 42.21 53.7 41.83Q51.28 41.06 49.77 39.86L49.53 40.23Q50.01 40.57 50.51 40.86Q54.22 43.04 59.2 43.04Q62.23 43.04 64.5 42.33Q65.14 42.13 65.72 41.83Q67.23 41.05 68.39 39.59Q68.82 39.05 69.14 38.46Q70.01 36.81 70.01 34.7Q70.01 31.82 69.04 29.96Q68.15 28.23 66.74 27.2Q66.63 27.12 66.51 27.04Q64.95 25.97 63.07 25.15Q61.18 24.32 59.31 23.66Q57.45 22.98 55.89 22.21Q53.61 21.01 52.81 19.17Q52.39 18.18 52.39 17.01Q52.39 15.4 53.08 14.2Q53.59 13.34 54.45 12.68Q56.53 11.11 60.22 11.11ZM25.35 11.4Q25.16 11.08 24.88 10.8L24.51 11.07Q24.6 11.16 24.68 11.26Q25.21 11.92 25.21 13.01Q25.21 13.53 25.12 14.03Q24.99 14.73 24.7 15.39L14.9 38.03L5.28 10.8L1.38 10.8L12.97 43.22L13.47 43L25.25 15.39Q25.76 14.2 25.76 13.05Q25.76 12.11 25.35 11.4ZM83.1 11.7Q84.66 11.07 86.48 11.07Q88.77 11.07 90.62 11.97Q92.52 12.91 93.95 14.8Q96.78 18.52 96.78 26.46Q96.78 34.39 93.81 38.56Q92.02 41.07 89.6 42.07Q88.02 42.71 86.17 42.71Q83.77 42.71 81.87 41.75Q80.06 40.83 78.69 39.04Q75.9 35.36 75.9 27.36Q75.9 19.35 78.86 15.21Q80.67 12.69 83.1 11.7ZM27.65 32.42L34.87 15.76L40.75 32.42L27.65 32.42Z" fill="#151412" fill-opacity="1.000000" fill-rule="evenodd"/>
</svg>
